<?xml version="1.0" encoding="UTF-8"?>
<svg version="1.1" xmlns="http://www.w3.org/2000/svg" width="256" height="109">
<path d="M0 0 C10.23 0 20.46 0 31 0 C33.041875 3.815625 35.08375 7.63125 37.1875 11.5625 C42.52442434 21.50265553 47.97047403 31.37084579 53.55932617 41.17211914 C57.11667865 47.41149699 60.55896292 53.69143203 64 60 C64.33 49.11 64.66 38.22 65 27 C67.99707031 26.95101563 70.99414062 26.90203125 74.08203125 26.8515625 C76.98125245 26.79756938 79.88039026 26.74025532 82.77954102 26.68261719 C84.79607952 26.64430896 86.81268678 26.60945935 88.8293457 26.578125 C91.72632442 26.53251451 94.62282896 26.47451361 97.51953125 26.4140625 C98.42274612 26.40251129 99.325961 26.39096008 100.25654602 26.37905884 C101.5175135 26.3492543 101.5175135 26.3492543 102.80395508 26.31884766 C103.54341873 26.30552399 104.28288239 26.29220032 105.04475403 26.2784729 C107.32104165 26.09785588 107.32104165 26.09785588 110 24 C110.5 21 110.5 21 110 18 C106.89276965 15.9285131 106.40653998 15.76288679 102.9309082 15.90332031 C102.11608475 15.92863831 101.30126129 15.9539563 100.46174622 15.9800415 C99.58362778 16.01240906 98.70550934 16.04477661 97.80078125 16.078125 C95.93299526 16.10655694 94.06514804 16.13117454 92.19726562 16.15234375 C89.25587503 16.1910882 86.32217625 16.24959195 83.38305664 16.37353516 C67.4100866 17.00626132 67.4100866 17.00626132 63.29632568 13.58178711 C60.48593076 10.10314137 57 4.62048636 57 0 C64.51986494 -0.06987387 72.03969572 -0.12299943 79.55981255 -0.15543652 C83.05268798 -0.17101405 86.54533939 -0.19210496 90.03808594 -0.22631836 C94.06447353 -0.26550694 98.09063015 -0.27977447 102.1171875 -0.29296875 C103.35612762 -0.30845261 104.59506775 -0.32393646 105.87155151 -0.33988953 C115.5659763 -0.34175039 124.24825278 0.72477606 132 7 C135.24057757 10.42060966 136.73670651 13.47319833 138 18 C138.41507813 17.43152344 138.83015625 16.86304687 139.2578125 16.27734375 C146.73972259 6.90147734 157.17708811 1.7088754 169 0 C172.92147343 -0.28663202 176.81911026 -0.33273664 180.75 -0.3125 C181.80461426 -0.31048584 182.85922852 -0.30847168 183.94580078 -0.30639648 C192.16362539 -0.20074778 200.50844502 0.25422251 208 4 C208 10.6 208 17.2 208 24 C205.03 23.01 202.06 22.02 199 21 C189.0915118 17.91374958 178.58982225 17.61844328 169 22 C165.48493817 24.05900519 162.71992738 26.09760121 161.24609375 29.9921875 C160.65700526 33.27868117 160.86567144 35.67164131 162.125 38.75 C167.454257 45.1451084 173.33192738 47.56709494 181.49609375 48.32421875 C189.14869638 48.55136867 195.39250498 47.71086939 202.51171875 44.875 C205 44 205 44 209 44 C209 49.94 209 55.88 209 62 C192.36012829 69.13137359 173.16727242 70.05745925 155.9765625 64.22265625 C146.50007221 60.33008215 140.91355306 54.52570408 136.1875 45.5625 C134.78826137 41.3647841 134.28915525 37.39715399 134 33 C133.53851563 33.39832031 133.07703125 33.79664063 132.6015625 34.20703125 C131.94929687 34.73683594 131.29703125 35.26664063 130.625 35.8125 C129.99851563 36.33457031 129.37203125 36.85664062 128.7265625 37.39453125 C120.85794181 42.02777352 112.80559439 42.4072961 103.875 42.1875 C100.28625 42.125625 96.6975 42.06375 93 42 C93 49.92 93 57.84 93 66 C82.05568368 66.29414591 71.11400601 66.53242978 60.16662598 66.67355824 C55.08273078 66.74130767 50.00168716 66.83311509 44.91943359 66.98071289 C40.01083599 67.12236905 35.10497272 67.19976878 30.19448853 67.23340416 C28.32505218 67.2573579 26.45575976 67.3041439 24.5874939 67.37449074 C10.26137063 67.89227835 10.26137063 67.89227835 6.40100098 64.66198349 C3.32280507 60.98894302 1.97560784 57.54801388 0 53 C-2.31 57.29 -4.62 61.58 -7 66 C-16.24 66 -25.48 66 -35 66 C-33.47992145 61.43976435 -32.06294928 58.02434358 -29.76171875 53.9140625 C-29.28576012 53.05820557 -29.28576012 53.05820557 -28.80018616 52.18505859 C-27.7670802 50.32918075 -26.72724026 48.47716767 -25.6875 46.625 C-24.23617404 44.02200488 -22.78825046 41.41712033 -21.33984375 38.8125 C-20.79277267 37.83055161 -20.79277267 37.83055161 -20.23464966 36.82876587 C-16.14455382 29.48095693 -12.15058889 22.08202322 -8.1628418 14.67822266 C-7.67082275 13.7660498 -7.17880371 12.85387695 -6.671875 11.9140625 C-6.2500293 11.1298291 -5.82818359 10.3455957 -5.39355469 9.53759766 C-3.63548184 6.33622955 -1.81206744 3.17111802 0 0 Z M15 19 C13.00119778 23.09101351 11.00750698 27.18446206 9.01855469 31.28027344 C8.34092606 32.67386252 7.66189476 34.06677045 6.98144531 35.45898438 C6.00478259 37.45786843 5.03315656 39.45913137 4.0625 41.4609375 C3.75626709 42.08495453 3.45003418 42.70897156 3.13452148 43.35189819 C1.51572221 46.53023687 1.51572221 46.53023687 1 50 C10.57 50 20.14 50 30 50 C27.88686174 43.66058521 25.27676488 37.75404963 22.5 31.6875 C22.00113281 30.57826172 21.50226562 29.46902344 20.98828125 28.32617188 C20.26705078 26.74739258 20.26705078 26.74739258 19.53125 25.13671875 C19.09361328 24.17467529 18.65597656 23.21263184 18.20507812 22.22143555 C17.19903459 19.86078853 17.19903459 19.86078853 15 19 Z " fill="#FF0000" transform="translate(36,0)"/>
<path d="M0 0 C3.63 0 7.26 0 11 0 C13 2 13 2 13.1875 4.9375 C13 8 13 8 12 11 C12.33 11.99 12.66 12.98 13 14 C13.12781786 16.67394964 13.04391871 19.32095857 13 22 C11.68 21.67 10.36 21.34 9 21 C8.67 18.03 8.34 15.06 8 12 C6.35 12 4.7 12 3 12 C3 15.3 3 18.6 3 22 C2.01 22 1.02 22 0 22 C0 14.74 0 7.48 0 0 Z M3 3 C3 4.98 3 6.96 3 9 C4.98 8.67 6.96 8.34 9 8 C8.67 6.35 8.34 4.7 8 3 C6.35 3 4.7 3 3 3 Z " fill="#000000" transform="translate(131,81)"/>
<path d="M0 0 C3.3 0 6.6 0 10 0 C10.05378021 3.12522772 10.09356575 6.2495371 10.125 9.375 C10.14175781 10.26445313 10.15851562 11.15390625 10.17578125 12.0703125 C10.18222656 12.92109375 10.18867187 13.771875 10.1953125 14.6484375 C10.20578613 15.43395996 10.21625977 16.21948242 10.22705078 17.02880859 C10 19 10 19 8 21 C1.67741935 21.33870968 1.67741935 21.33870968 -1 20 C-0.79375 19.2575 -0.5875 18.515 -0.375 17.75 C0.25407647 15.06755791 0.25407647 15.06755791 -0.9375 13.125 C-2.49485173 10.01029655 -2.24511971 7.43167588 -2 4 C-1.34 2.68 -0.68 1.36 0 0 Z M3 3 C1.61091361 4.17110184 1.61091361 4.17110184 1.75 7.4375 C1.8325 8.613125 1.915 9.78875 2 11 C3.485 11.99 3.485 11.99 5 13 C6.80411967 10.24075815 7.0127245 9.11027897 6.625 5.75 C6.41875 4.8425 6.2125 3.935 6 3 C5.01 3 4.02 3 3 3 Z M5 15 C4.01 15.495 4.01 15.495 3 16 C3 16.66 3 17.32 3 18 C3.99 18 4.98 18 6 18 C5.67 17.01 5.34 16.02 5 15 Z " fill="#000000" transform="translate(29,87)"/>
<path d="M0 0 C0.99 0 1.98 0 3 0 C3 1.98 3 3.96 3 6 C5.31 6 7.62 6 10 6 C12.33991708 9.65612044 12.37437949 12.73207376 12 17 C11.0625 19.9375 11.0625 19.9375 9 22 C6.03 22 3.06 22 0 22 C0 14.74 0 7.48 0 0 Z M4 9 C2.9910966 13.23646767 2.9910966 13.23646767 3.9375 17.375 C4.288125 17.91125 4.63875 18.4475 5 19 C5.99 18.67 6.98 18.34 8 18 C8 15.36 8 12.72 8 10 C6.68 9.67 5.36 9.34 4 9 Z " fill="#000000" transform="translate(188,81)"/>
<path d="M0 0 C0.99 0 1.98 0 3 0 C3 7.26 3 14.52 3 22 C0.03 22 -2.94 22 -6 22 C-8 20 -8 20 -8.23046875 17.25 C-8.21628906 16.1775 -8.20210938 15.105 -8.1875 14 C-8.18105469 12.9275 -8.17460938 11.855 -8.16796875 10.75 C-8 8 -8 8 -7 6 C-4.69 6 -2.38 6 0 6 C0 4.02 0 2.04 0 0 Z M-4 9 C-5.39681568 10.16983444 -5.39681568 10.16983444 -5.125 13.4375 C-5.2526281 16.84105584 -5.2526281 16.84105584 -4 19 C-3.01 19 -2.02 19 -1 19 C-0.814375 17.72125 -0.62875 16.4425 -0.4375 15.125 C-0.33308594 14.40570313 -0.22867188 13.68640625 -0.12109375 12.9453125 C0.1684297 10.91859333 0.1684297 10.91859333 -1 9 C-1.99 9 -2.98 9 -4 9 Z " fill="#000000" transform="translate(79,81)"/>
<path d="M0 0 C1.051875 0.01160156 1.051875 0.01160156 2.125 0.0234375 C2.82625 0.01570313 3.5275 0.00796875 4.25 0 C6.125 0.3984375 6.125 0.3984375 8.125 3.3984375 C8.25 6.5859375 8.25 6.5859375 8.125 9.3984375 C5.485 9.3984375 2.845 9.3984375 0.125 9.3984375 C0.455 10.3884375 0.785 11.3784375 1.125 12.3984375 C1.785 12.3984375 2.445 12.3984375 3.125 12.3984375 C3.455 11.7384375 3.785 11.0784375 4.125 10.3984375 C5.445 10.3984375 6.765 10.3984375 8.125 10.3984375 C7.75 12.8359375 7.75 12.8359375 7.125 15.3984375 C4.32629973 16.79778763 2.22001208 16.65109155 -0.875 16.3984375 C-2.546875 15.1953125 -2.546875 15.1953125 -3.875 13.3984375 C-4.23828125 11.0234375 -4.23828125 11.0234375 -4.1875 8.3984375 C-4.18363281 7.5321875 -4.17976562 6.6659375 -4.17578125 5.7734375 C-3.79718632 2.78401262 -3.17650305 0.6750069 0 0 Z M0.125 3.3984375 C0.125 4.3884375 0.125 5.3784375 0.125 6.3984375 C1.445 6.3984375 2.765 6.3984375 4.125 6.3984375 C3.795 5.0784375 3.465 3.7584375 3.125 2.3984375 C1.9013932 2.3239019 1.9013932 2.3239019 0.125 3.3984375 Z " fill="#000000" transform="translate(16.875,86.6015625)"/>
<path d="M0 0 C3.4375 0.375 3.4375 0.375 5.4375 2.375 C5.5625 6 5.5625 6 5.4375 9.375 C2.7975 9.375 0.1575 9.375 -2.5625 9.375 C-2.2325 10.365 -1.9025 11.355 -1.5625 12.375 C-0.9025 12.375 -0.2425 12.375 0.4375 12.375 C0.7675 11.715 1.0975 11.055 1.4375 10.375 C2.7575 10.375 4.0775 10.375 5.4375 10.375 C5.0625 12.8125 5.0625 12.8125 4.4375 15.375 C1.57629744 16.80560128 -0.40260585 16.76192581 -3.5625 16.375 C-6.13702839 13.54301877 -6.53715182 11.61580767 -6.9375 7.8125 C-6.35391019 2.46292677 -5.53794277 0.58294134 0 0 Z M-0.5625 2.375 C-1.2225 3.695 -1.8825 5.015 -2.5625 6.375 C-0.9125 6.375 0.7375 6.375 2.4375 6.375 C1.7775 5.055 1.1175 3.735 0.4375 2.375 C0.1075 2.375 -0.2225 2.375 -0.5625 2.375 Z " fill="#000000" transform="translate(47.5625,86.625)"/>
<path d="M0 0 C1.60875 -0.061875 3.2175 -0.12375 4.875 -0.1875 C5.77992187 -0.22230469 6.68484375 -0.25710937 7.6171875 -0.29296875 C8.79667969 -0.14794922 8.79667969 -0.14794922 10 0 C12.42130331 3.63195496 12.21022785 5.38349348 12.125 9.6875 C12.10695313 10.86699219 12.08890625 12.04648438 12.0703125 13.26171875 C12.03550781 14.61716797 12.03550781 14.61716797 12 16 C10.68 16 9.36 16 8 16 C8 11.71 8 7.42 8 3 C6.68 3 5.36 3 4 3 C4 7.29 4 11.58 4 16 C2.68 16 1.36 16 0 16 C0 10.72 0 5.44 0 0 Z " fill="#000000" transform="translate(56,87)"/>
<path d="M0 0 C6.15234375 -0.09765625 6.15234375 -0.09765625 8 0 C9.99616554 1.99616554 9.40983427 5.81701963 9.5625 8.5625 C9.60568359 9.27341797 9.64886719 9.98433594 9.69335938 10.71679688 C9.79971777 12.47761912 9.90038846 14.2387832 10 16 C8.37536158 16.05395478 6.75021459 16.09277195 5.125 16.125 C4.22007813 16.14820312 3.31515625 16.17140625 2.3828125 16.1953125 C0 16 0 16 -2 14 C-2.25 11 -2.25 11 -2 8 C0 6 0 6 3.125 5.875 C4.07375 5.91625 5.0225 5.9575 6 6 C5.67 5.34 5.34 4.68 5 4 C4.01 3.67 3.02 3.34 2 3 C2 3.66 2 4.32 2 5 C0.68 5 -0.64 5 -2 5 C-1.34 3.35 -0.68 1.7 0 0 Z M2 9 C2 10.32 2 11.64 2 13 C3.32 12.34 4.64 11.68 6 11 C6 10.01 6 9.02 6 8 C3.9254644 7.8509288 3.9254644 7.8509288 2 9 Z " fill="#000000" transform="translate(87,87)"/>
<path d="M0 0 C6.15234375 -0.09765625 6.15234375 -0.09765625 8 0 C9.99616554 1.99616554 9.40983427 5.81701963 9.5625 8.5625 C9.60568359 9.27341797 9.64886719 9.98433594 9.69335938 10.71679688 C9.79971777 12.47761912 9.90038846 14.2387832 10 16 C8.37581255 16.08090971 6.75048255 16.13914995 5.125 16.1875 C4.22007812 16.22230469 3.31515625 16.25710937 2.3828125 16.29296875 C1.20332031 16.14794922 1.20332031 16.14794922 0 16 C-2 13 -2 13 -1.6875 9.875 C-1 7 -1 7 0 6 C1.99958364 5.95919217 4.00045254 5.95745644 6 6 C5.34 5.01 4.68 4.02 4 3 C3.34 3.66 2.68 4.32 2 5 C1.01 5 0.02 5 -1 5 C-0.67 3.35 -0.34 1.7 0 0 Z M2 9 C2.33 10.32 2.66 11.64 3 13 C3.66 13 4.32 13 5 13 C5.33 11.35 5.66 9.7 6 8 C3.9254644 7.8509288 3.9254644 7.8509288 2 9 Z " fill="#000000" transform="translate(176,87)"/>
<path d="M0 0 C2.01822917 0.06510417 4.03645833 0.13020833 6.0546875 0.1953125 C7.5330101 3.15195769 7.11501533 5.93760987 7.0546875 9.1953125 C4.4146875 9.1953125 1.7746875 9.1953125 -0.9453125 9.1953125 C-0.6153125 10.5153125 -0.2853125 11.8353125 0.0546875 13.1953125 C1.0446875 13.1953125 2.0346875 13.1953125 3.0546875 13.1953125 C3.3846875 12.2053125 3.7146875 11.2153125 4.0546875 10.1953125 C5.0446875 10.1953125 6.0346875 10.1953125 7.0546875 10.1953125 C6.1796875 15.0703125 6.1796875 15.0703125 5.0546875 16.1953125 C1.02308559 16.45824306 -0.50423984 16.48936094 -3.9453125 14.1953125 C-4.30859375 11.4453125 -4.30859375 11.4453125 -4.2578125 8.1953125 C-4.25394531 7.1228125 -4.25007812 6.0503125 -4.24609375 4.9453125 C-3.89773187 1.76028959 -3.36685629 0.33803778 0 0 Z M1.0546875 2.1953125 C0.3946875 3.5153125 -0.2653125 4.8353125 -0.9453125 6.1953125 C0.7046875 6.1953125 2.3546875 6.1953125 4.0546875 6.1953125 C3.3946875 4.8753125 2.7346875 3.5553125 2.0546875 2.1953125 C1.7246875 2.1953125 1.3946875 2.1953125 1.0546875 2.1953125 Z " fill="#000000" transform="translate(150.9453125,86.8046875)"/>
<path d="M0 0 C1.32 0 2.64 0 4 0 C4.66 2.31 5.32 4.62 6 7 C7.74627478 4.38058783 8.38722388 2.96175123 9 0 C10.32 0 11.64 0 13 0 C11.55613874 7.21930632 9.42211826 14.05110733 7 21 C5.68 21 4.36 21 3 21 C3.061875 19.700625 3.12375 18.40125 3.1875 17.0625 C3.20862263 12.60562542 2.25627734 9.07871647 0.65625 4.9453125 C0 3 0 3 0 0 Z " fill="#000000" transform="translate(231,87)"/>
<path d="M0 0 C1.32 0 2.64 0 4 0 C5.49821059 3.37097383 6 5.20442119 6 9 C6.66 9 7.32 9 8 9 C8.144375 7.88625 8.28875 6.7725 8.4375 5.625 C9 2 9 2 10 0 C11.32 0.33 12.64 0.66 14 1 C13.11063508 4.15421557 12.1840647 7.29625836 11.25 10.4375 C10.99734375 11.33533203 10.7446875 12.23316406 10.484375 13.15820312 C10.2265625 14.01220703 9.96875 14.86621094 9.703125 15.74609375 C9.47270508 16.53685303 9.24228516 17.3276123 9.00488281 18.14233398 C8 20 8 20 5.89355469 20.76586914 C5.26868164 20.84313232 4.64380859 20.92039551 4 21 C4.0825 20.0925 4.165 19.185 4.25 18.25 C4.28996392 13.38439237 2.50965133 9.09788928 0.875 4.57421875 C0 2 0 2 0 0 Z " fill="#000000" transform="translate(108,87)"/>
<path d="M0 0 C1.32 0 2.64 0 4 0 C4 5.94 4 11.88 4 18 C6.64 18 9.28 18 12 18 C12 19.32 12 20.64 12 22 C8.04 22 4.08 22 0 22 C0 14.74 0 7.48 0 0 Z " fill="#000000" transform="translate(0,81)"/>
<path d="M0 0 C0.99 0 1.98 0 3 0 C3 1.32 3 2.64 3 4 C3.99 4 4.98 4 6 4 C6 4.99 6 5.98 6 7 C5.01 7 4.02 7 3 7 C3 10.3 3 13.6 3 17 C3.99 17 4.98 17 6 17 C6 17.99 6 18.98 6 20 C3.625 20.125 3.625 20.125 1 20 C-1 18 -1 18 -1.1953125 15.3984375 C-1.17210937 14.40070313 -1.14890625 13.40296875 -1.125 12.375 C-1.10695312 11.37210938 -1.08890625 10.36921875 -1.0703125 9.3359375 C-1.04710937 8.56507812 -1.02390625 7.79421875 -1 7 C-1.66 7 -2.32 7 -3 7 C-3 6.01 -3 5.02 -3 4 C-2.34 4 -1.68 4 -1 4 C-0.67 2.68 -0.34 1.36 0 0 Z " fill="#000000" transform="translate(224,83)"/>
<path d="M0 0 C1.32 0 2.64 0 4 0 C4 7.26 4 14.52 4 22 C2.68 22 1.36 22 0 22 C0 14.74 0 7.48 0 0 Z " fill="#000000" transform="translate(161,81)"/>
<path d="M0 0 C2.64 0 5.28 0 8 0 C8 0.99 8 1.98 8 3 C7.01 3.33 6.02 3.66 5 4 C3.78306124 6.43387753 3.68040104 8.41838846 3.4375 11.125 C3.31181641 12.49011719 3.31181641 12.49011719 3.18359375 13.8828125 C3.12300781 14.58148438 3.06242187 15.28015625 3 16 C2.01 16 1.02 16 0 16 C0 10.72 0 5.44 0 0 Z " fill="#000000" transform="translate(99,87)"/>
<path d="M0 0 C0.99 0 1.98 0 3 0 C3 7.26 3 14.52 3 22 C2.01 22 1.02 22 0 22 C0 14.74 0 7.48 0 0 Z " fill="#000000" transform="translate(209,81)"/>
<path d="M0 0 C1.32 0 2.64 0 4 0 C4 5.28 4 10.56 4 16 C2.68 16 1.36 16 0 16 C0 10.72 0 5.44 0 0 Z " fill="#000000" transform="translate(202,87)"/>
<path d="M0 0 C1.32 0 2.64 0 4 0 C4 5.28 4 10.56 4 16 C2.68 15.67 1.36 15.34 0 15 C0 10.05 0 5.1 0 0 Z " fill="#000000" transform="translate(215,87)"/>
<path d="M0 0 C0.99 0 1.98 0 3 0 C3 5.28 3 10.56 3 16 C2.01 16 1.02 16 0 16 C0 10.72 0 5.44 0 0 Z " fill="#000000" transform="translate(168,87)"/>
<path d="M0 0 C1.125 3.75 1.125 3.75 0 6 C-1.66611905 6.042721 -3.33382885 6.04063832 -5 6 C-6 5 -6 5 -6.0625 2.4375 C-6.041875 1.633125 -6.02125 0.82875 -6 0 C-3.50907189 -1.24546405 -2.58919267 -0.7767578 0 0 Z " fill="#000000" transform="translate(253,3)"/>
<path d="M0 0 C2.97 0 5.94 0 9 0 C9 1.65 9 3.3 9 5 C6.36 5 3.72 5 1 5 C0.67 3.35 0.34 1.7 0 0 Z " fill="#000000" transform="translate(245,82)"/>
<path d="M0 0 C1.32 0 2.64 0 4 0 C4 0.99 4 1.98 4 3 C2.68 3 1.36 3 0 3 C0 2.01 0 1.02 0 0 Z " fill="#000000" transform="translate(215,81)"/>
<path d="M0 0 C1.32 0 2.64 0 4 0 C4 0.99 4 1.98 4 3 C2.68 3 1.36 3 0 3 C0 2.01 0 1.02 0 0 Z " fill="#000000" transform="translate(202,81)"/>
<path d="M0 0 C0.99 0 1.98 0 3 0 C3 0.99 3 1.98 3 3 C2.01 3 1.02 3 0 3 C0 2.01 0 1.02 0 0 Z " fill="#000000" transform="translate(168,81)"/>
</svg>
