<?xml version="1.0" encoding="UTF-8"?>
<svg version="1.1" xmlns="http://www.w3.org/2000/svg" width="256" height="56">
<path d="M0 0 C15 0 15 0 20.375 4.8125 C21.95097655 6.84890376 23.49235985 8.91249825 25 11 C26.63680636 12.98663861 28.28231078 14.96615104 29.9375 16.9375 C32.35760136 19.91980277 34.69443055 22.9259074 37 26 C37.33 17.42 37.66 8.84 38 0 C43.28 0 48.56 0 54 0 C54 17.16 54 34.32 54 52 C39 52 39 52 33.625 47.1875 C32.04902345 45.15109624 30.50764015 43.08750175 29 41 C27.36319364 39.01336139 25.71768922 37.03384896 24.0625 35.0625 C21.64239864 32.08019723 19.30556945 29.0740926 17 26 C16.67 34.58 16.34 43.16 16 52 C10.72 52 5.44 52 0 52 C0 34.84 0 17.68 0 0 Z " fill="#205194" transform="translate(200,2)"/>
<path d="M0 0 C29.53846154 0 29.53846154 0 35 4.4375 C38.2737249 8.63196002 38.60455625 12.82096811 38 18 C36.5 21 36.5 21 35 23 C35.94875 23.721875 36.8975 24.44375 37.875 25.1875 C42.05006081 28.71266927 42.85562641 31.48407726 43.375 36.9375 C43.26172607 41.22572725 41.76592451 43.69625684 39 47 C28.41880313 54.93589766 11.93682914 52 0 52 C0 34.84 0 17.68 0 0 Z M17 13 C17 14.98 17 16.96 17 19 C18.65 18.67 20.3 18.34 22 18 C22 16.68 22 15.36 22 14 C20.35 13.67 18.7 13.34 17 13 Z M17 31 C17 33.64 17 36.28 17 39 C21.65052872 39.26932521 21.65052872 39.26932521 26 38 C26 36.35 26 34.7 26 33 C22.62902617 31.50178941 20.79557881 31 17 31 Z " fill="#205194" transform="translate(2,2)"/>
<path d="M0 0 C32.93430657 0 32.93430657 0 42 9 C46.79021062 15.05079236 48.48115153 20.77788478 48.3203125 28.40625 C47.55354472 34.61519888 44.46719573 40.65353929 40 45 C27.83824023 53.56567474 14.75088193 52 0 52 C0 34.84 0 17.68 0 0 Z M39 12 C39.33 12.86625 39.66 13.7325 40 14.625 C42.11587992 21.94804539 41.73793582 30.63115212 40 38 C42.91484713 35.33861783 43.87636425 33.36810053 44.23828125 29.36328125 C44.40890225 22.34986005 43.68757042 17.99230193 40 12 C39.67 12 39.34 12 39 12 Z M16 14 C16 21.92 16 29.84 16 38 C21.69792198 37.05034634 23.07276144 36.70282493 27 33 C28.85110583 29.29778834 28.46454795 25.04093083 28 21 C25.94391917 17.47529 23.88472657 15.33537476 20 14 C18.68 14 17.36 14 16 14 Z M34 14 C35 16 35 16 35 16 Z M35 16 C35.165 16.639375 35.33 17.27875 35.5 17.9375 C36.49267155 24.01761325 36.23765436 29.96643499 35 36 C37.85770059 33.62115735 38.49879419 31.92085669 38.875 28.25 C39.25962459 23.30067985 38.34998876 20.32397931 36 16 C35.67 16 35.34 16 35 16 Z M30 17 C31 19 31 19 31 19 Z M31 19 C31 23.62 31 28.24 31 33 C31.66 32.67 32.32 32.34 33 32 C34.00976752 26.9511624 34.48895013 23.6850826 32 19 C31.67 19 31.34 19 31 19 Z M30 33 C31 35 31 35 31 35 Z M34 36 C35 38 35 38 35 38 Z M39 38 C40 40 40 40 40 40 Z " fill="#205194" transform="translate(115,2)"/>
<path d="M0 0 C10.56 0 21.12 0 32 0 C32 4.62 32 9.24 32 14 C26.72 14 21.44 14 16 14 C16 15.65 16 17.3 16 19 C21.28 19 26.56 19 32 19 C32 23.29 32 27.58 32 32 C26.72 32 21.44 32 16 32 C16 33.98 16 35.96 16 38 C21.28 38 26.56 38 32 38 C32 42.62 32 47.24 32 52 C21.44 52 10.88 52 0 52 C0 34.84 0 17.68 0 0 Z " fill="#205194" transform="translate(165,2)"/>
<path d="M0 0 C10.56 0 21.12 0 32 0 C32 4.62 32 9.24 32 14 C26.72 14 21.44 14 16 14 C16 15.65 16 17.3 16 19 C21.28 19 26.56 19 32 19 C32 23.29 32 27.58 32 32 C26.72 32 21.44 32 16 32 C16 33.98 16 35.96 16 38 C21.28 38 26.56 38 32 38 C32 42.62 32 47.24 32 52 C21.44 52 10.88 52 0 52 C0 34.84 0 17.68 0 0 Z " fill="#205194" transform="translate(46,2)"/>
<path d="M0 0 C5.61 0 11.22 0 17 0 C17 12.54 17 25.08 17 38 C22.28 38 27.56 38 33 38 C33 42.62 33 47.24 33 52 C22.11 52 11.22 52 0 52 C0 34.84 0 17.68 0 0 Z " fill="#205194" transform="translate(80,2)"/>
</svg>
