<svg xmlns="http://www.w3.org/2000/svg" height="800" width="1200" viewBox="-24.059475 -5.309375 208.51545 31.85625"><g fill="#231F20" fill-rule="evenodd"><path d="M157.8888 2.3982h-.2583V1.705c.0586-.0144.1592-.0295.3016-.0295.3436 0 .4998.148.4998.3684 0 .2521-.2424.3543-.543.3543zm.6456.1762v-.0288c.2844-.0897.486-.296.486-.5754 0-.2204-.0994-.412-.2286-.5154-.1721-.1176-.3737-.1916-.8167-.1916-.3876 0-.6886.0433-.903.0884v2.4027h.5452v-.9588h.2571c.3007 0 .4446.1188.4876.3834.0699.2803.1153.4863.1853.5754h.5885c-.0577-.0737-.1007-.2214-.1715-.5907-.073-.3233-.2016-.5155-.43-.5892zm-.5302 1.857c-1.0613 0-1.836-.8546-1.836-1.9307 0-1.0613.7747-1.9313 1.8068-1.9313h.0133c1.0468 0 1.8065.87 1.8065 1.9313 0 1.0761-.7597 1.9449-1.7906 1.9308zm0-4.3477h-.016c-1.347 0-2.4214 1.076-2.4214 2.417 0 1.3711 1.0745 2.4321 2.4214 2.4321 1.3614 0 2.4083-1.061 2.4083-2.432 0-1.341-1.047-2.417-2.3923-2.417zM74.6615.4785l-3.4438 9.6245c-.8616 2.5098-1.5489 4.6952-2.0377 6.7015h-.0856c-.4872-2.0671-1.1481-4.2506-1.9514-6.7015L63.8421.4785h-3.1858l-1.3479 19.8984h2.3813l.5176-8.5316c.1719-2.9826.3148-6.3186.3725-8.7987h.0574c.545 2.3622 1.3203 4.9303 2.239 7.7358l3.1284 9.4747h1.8931l3.415-9.6515c.9757-2.7174 1.7787-5.2266 2.4387-7.559h.0871c-.0294 2.48.1436 5.816.2866 8.5912l.487 8.739h2.4402L77.8467.4786zm-21.8291 0l-3.4448 9.6245c-.8607 2.5098-1.5486 4.6952-2.037 6.7015h-.0863c-.4866-2.0671-1.1472-4.2506-1.9514-6.7015l-3.3-9.6245h-3.1867l-1.348 19.8984h2.383l.516-8.5316c.1718-2.9826.3158-6.3186.3731-8.7987h.0568c.5468 2.3622 1.3209 4.9303 2.2392 7.7358l3.1282 9.4747h1.894l3.4144-9.6515c.976-2.7174 1.7803-5.2266 2.4393-7.559h.0853c-.0276 2.48.1448 5.816.2884 8.5912l.4866 8.739h2.4397L56.0175.4786zm50.8034 1.798c1.8267 0 3.7311.6873 5.1194 1.958l1.2272-1.8642C108.2805.6042 106.0322 0 103.866 0c-5.7107 0-10.3178 4.6055-10.3178 10.508 0 5.7697 4.5845 10.4696 10.1121 10.2965 1.9323-.0605 4.4215-.6813 6.3221-2.4236l-1.2272-1.9163c-1.4407 1.3225-3.267 2.064-5.1717 2.064-4.322 0-7.616-3.733-7.616-8.0995 0-4.4205 3.3196-8.1525 7.6683-8.1525zm39.9236 18.1042h10.42V18.104h-8.0017v-7.5436h7.77v-2.276h-7.77V2.6992h8.0017V.4232h-10.42zm-9.133-10.5875h-.7747V2.6465h.6456c2.392 0 5.2733.3719 5.2733 3.4944 0 3.1751-2.676 3.6523-5.1442 3.6523zm-.4144-9.37h-2.776v19.9575h2.4157v-8.363h1.3899c3.6812 0 6.7927-1.6156 6.7927-5.8241 0-3.6524-1.8523-5.7703-7.8223-5.7703zM87.7704 8.5759l-1.3883-.556c-1.2093-.4755-2.7014-1.297-2.7014-2.8578 0-1.7473 1.6987-2.833 3.2416-2.833 1.7015 0 2.7434 1.176 2.8224 2.481l2.2205.009C91.6115 1.3247 89.1362 0 86.9737 0c-2.9325 0-5.712 1.9317-5.712 5.162 0 2.7789 2.008 4.0747 4.2199 5.0548l1.3388.5826c1.673.7148 3.345 1.6413 3.345 3.785 0 2.0912-1.4933 3.8912-3.5777 3.8912-2.083 0-3.7802-1.589-3.7548-3.785l-2.4453.0483c.295 3.8035 2.855 6.0656 5.9945 6.0656 3.4727 0 6.201-2.5941 6.201-6.2202 0-3.3356-2.0586-4.897-4.8127-6.0085zm-61.7609 9.8998c-4.1938 0-7.7452-3.52-7.7452-8.0735 0-4.3935 3.1899-8.0732 7.7452-8.0732 4.5529 0 7.7424 3.6797 7.7424 8.0732 0 4.5535-3.5492 8.0735-7.7424 8.0735zm0-18.4756C20.451 0 15.846 4.6858 15.846 10.4021c0 5.9283 4.5535 10.4024 10.1635 10.4024 5.6085 0 10.1632-4.474 10.1632-10.4024C36.1727 4.6858 31.566 0 26.0095 0zM10.0334 18.5286c-4.3208 0-7.6145-3.733-7.6145-8.0995 0-4.4205 3.3197-8.1525 7.6669-8.1525 1.8263 0 3.7304.6872 5.1206 1.958l1.225-1.8643C14.731.6042 12.4812 0 10.3168 0 4.6058 0 0 4.6055 0 10.508c0 5.7697 4.5823 10.4696 10.1124 10.2965 1.9317-.0605 4.4177-.6813 6.319-2.4236l-1.225-1.9163c-1.4413 1.3225-3.2686 2.064-5.173 2.064z"/><path d="M124.124 1.0143c-3.1815-1.1682-7.395.4044-7.8318 3.5959-.4155 3.052 1.4206 4.7748 5.2902 5.5402 4.0142.7929 3.5543 4.3 2.5453 5.4799-1.6185 1.8925-4.0991 2.0765-6.0719 1.3952-3.985-1.035-6.9833-4.8598-6.2064-9.6672.797-4.8877 4.8059-7.2997 8.9376-7.2906-.3844-.042-.7738-.0677-1.1698-.0677C113.7538 0 109 4.7544 109 10.6188c0 5.8637 4.7538 10.6187 10.6172 10.6187 5.865 0 10.6175-4.755 10.6175-10.6187 0-4.2512-2.503-7.9083-6.1108-9.6045"/></g></svg>