<?xml version="1.0" standalone="no"?>
<!DOCTYPE svg PUBLIC "-//W3C//DTD SVG 20010904//EN"
 "http://www.w3.org/TR/2001/REC-SVG-20010904/DTD/svg10.dtd">
<svg version="1.0" xmlns="http://www.w3.org/2000/svg"
 width="256.000000pt" height="54.000000pt" viewBox="0 0 256.000000 54.000000"
 preserveAspectRatio="xMidYMid meet">

<g transform="translate(0.000000,54.000000) scale(0.100000,-0.100000)"
fill="#000000" stroke="none">
<path d="M10 275 l0 -255 180 0 180 0 0 45 0 44 -122 3 -123 3 -3 208 -2 207
-55 0 -55 0 0 -255z"/>
<path d="M516 405 c-57 -20 -104 -71 -122 -132 -43 -149 68 -274 233 -261 57
5 148 46 148 68 0 7 -12 22 -28 33 -25 20 -29 20 -55 5 -42 -24 -79 -30 -122
-18 -50 14 -58 27 -23 41 15 5 76 31 136 56 119 50 122 54 87 123 -43 84 -153
121 -254 85z m141 -99 c15 -13 26 -26 23 -29 -4 -3 -127 -55 -176 -74 -10 -4
-14 4 -14 32 0 82 103 126 167 71z"/>
<path d="M1021 410 c-13 -6 -36 -19 -52 -31 l-29 -20 0 25 c0 24 -3 26 -50 26
l-50 0 0 -195 0 -195 50 0 50 0 0 110 c0 135 13 173 63 189 46 15 103 -6 117
-44 6 -15 10 -78 10 -141 l0 -114 56 0 56 0 -4 143 c-4 156 -14 188 -67 227
-34 24 -115 35 -150 20z"/>
<path d="M1421 407 c-77 -25 -141 -116 -141 -202 0 -37 30 -102 60 -134 83
-86 241 -79 318 14 133 162 -33 387 -237 322z m114 -91 c44 -19 69 -66 62
-119 -7 -52 -42 -87 -95 -94 -37 -5 -45 -2 -77 30 -30 30 -35 42 -35 80 0 48
26 92 64 107 30 12 42 12 81 -4z"/>
<path d="M2261 407 c-77 -25 -141 -116 -141 -202 0 -37 30 -102 60 -134 83
-86 241 -79 318 14 133 162 -33 387 -237 322z m114 -91 c44 -19 69 -66 62
-119 -7 -52 -42 -87 -95 -94 -37 -5 -45 -2 -77 30 -30 30 -35 42 -35 80 0 48
26 92 64 107 30 12 42 12 81 -4z"/>
<path d="M1698 393 c6 -10 42 -98 82 -195 l72 -178 62 0 61 0 72 178 c40 97
75 185 79 195 5 15 -1 17 -54 17 l-59 0 -48 -131 c-26 -72 -51 -127 -55 -122
-4 4 -27 63 -51 130 l-44 123 -63 0 c-57 0 -62 -2 -54 -17z"/>
</g>
</svg>
