<?xml version="1.0" encoding="UTF-8"?>
<svg version="1.1" xmlns="http://www.w3.org/2000/svg" width="225" height="35">
<path d="M0 0 C1.67739258 0.01933594 1.67739258 0.01933594 3.38867188 0.0390625 C4.55591797 0.07257812 5.72316406 0.10609375 6.92578125 0.140625 C8.10462891 0.15867187 9.28347656 0.17671875 10.49804688 0.1953125 C13.41227051 0.24250641 16.32487156 0.30833423 19.23828125 0.390625 C19.23828125 3.360625 19.23828125 6.330625 19.23828125 9.390625 C12.96828125 9.390625 6.69828125 9.390625 0.23828125 9.390625 C-0.09171875 10.710625 -0.42171875 12.030625 -0.76171875 13.390625 C5.83828125 13.390625 12.43828125 13.390625 19.23828125 13.390625 C19.23828125 16.360625 19.23828125 19.330625 19.23828125 22.390625 C12.63828125 22.390625 6.03828125 22.390625 -0.76171875 22.390625 C-0.43171875 23.710625 -0.10171875 25.030625 0.23828125 26.390625 C6.50828125 26.390625 12.77828125 26.390625 19.23828125 26.390625 C19.23828125 29.360625 19.23828125 32.330625 19.23828125 35.390625 C15.13435113 35.50654264 11.03084019 35.57778101 6.92578125 35.640625 C5.75853516 35.67414062 4.59128906 35.70765625 3.38867188 35.7421875 C2.27041016 35.75507812 1.15214844 35.76796875 0 35.78125 C-1.03165283 35.80219727 -2.06330566 35.82314453 -3.1262207 35.84472656 C-5.76171875 35.390625 -5.76171875 35.390625 -7.59692383 33.75097656 C-9.07374567 30.75833066 -9.14975493 28.56874106 -9.16015625 25.234375 C-9.16595703 23.45353516 -9.16595703 23.45353516 -9.171875 21.63671875 C-9.16027344 20.40050781 -9.14867187 19.16429687 -9.13671875 17.890625 C-9.14832031 16.65441406 -9.15992188 15.41820312 -9.171875 14.14453125 C-9.16800781 12.95730469 -9.16414063 11.77007812 -9.16015625 10.546875 C-9.15677246 9.46212891 -9.15338867 8.37738281 -9.14990234 7.25976562 C-8.32779736 1.1834274 -5.88770301 -0.11954727 0 0 Z " fill="#003277" transform="translate(68.76171875,-0.390625)"/>
<path d="M0 0 C5.81625 -0.185625 5.81625 -0.185625 11.75 -0.375 C12.96655273 -0.42962402 14.18310547 -0.48424805 15.43652344 -0.54052734 C18.38575365 -0.58634733 21.09617693 -0.53314203 24 0 C26.99939387 2.9309341 27.77797495 4.73952706 28.49609375 8.81640625 C28.29000728 18.4749922 28.29000728 18.4749922 25 22 C22.890625 22.6171875 22.890625 22.6171875 21 23 C21.5053125 23.78246094 22.010625 24.56492187 22.53125 25.37109375 C23.1809375 26.38300781 23.830625 27.39492188 24.5 28.4375 C25.1496875 29.44683594 25.799375 30.45617187 26.46875 31.49609375 C28 34 28 34 28 35 C24.77552355 35.73894252 22.19986143 35.92132233 19 35 C16.49994093 32.3452981 14.64787697 29.59935734 12.7265625 26.50390625 C11.18170937 23.72640671 11.18170937 23.72640671 8 23 C8 26.96 8 30.92 8 35 C5.36 35 2.72 35 0 35 C0 23.45 0 11.9 0 0 Z M8 9 C8 10.65 8 12.3 8 14 C11.63 14 15.26 14 19 14 C19 12.35 19 10.7 19 9 C15.37 9 11.74 9 8 9 Z " fill="#003276" transform="translate(30,0)"/>
<path d="M0 0 C3.898125 -0.061875 7.79625 -0.12375 11.8125 -0.1875 C13.03815674 -0.21481201 14.26381348 -0.24212402 15.52661133 -0.27026367 C16.4936499 -0.27775635 17.46068848 -0.28524902 18.45703125 -0.29296875 C19.9416687 -0.31653442 19.9416687 -0.31653442 21.45629883 -0.34057617 C24 0 24 0 25.78393555 1.33081055 C29.14397195 5.94285008 28.2232966 11.94085761 28.25 17.375 C28.270625 18.4165625 28.29125 19.458125 28.3125 20.53125 C28.3609895 30.01094681 28.3609895 30.01094681 25 34 C24 35 24 35 21.68334961 35.11352539 C20.68311768 35.10828857 19.68288574 35.10305176 18.65234375 35.09765625 C17.19429321 35.09390991 17.19429321 35.09390991 15.70678711 35.09008789 C14.46292236 35.08098389 13.21905762 35.07187988 11.9375 35.0625 C7.998125 35.041875 4.05875 35.02125 0 35 C0 23.45 0 11.9 0 0 Z M8 9 C8 14.61 8 20.22 8 26 C11.63 26 15.26 26 19 26 C20.02835363 22.91493912 20.13368434 20.7305728 20.125 17.5 C20.12757813 16.5409375 20.13015625 15.581875 20.1328125 14.59375 C20.10992972 11.88428848 20.10992972 11.88428848 19 9 C15.37 9 11.74 9 8 9 Z " fill="#00347A" transform="translate(120,0)"/>
<path d="M0 0 C0.87591797 -0.00064453 1.75183594 -0.00128906 2.65429688 -0.00195312 C3.56115234 0.01802734 4.46800781 0.03800781 5.40234375 0.05859375 C6.31306641 0.05150391 7.22378906 0.04441406 8.16210938 0.03710938 C14.83243542 0.1010108 14.83243542 0.1010108 17.06030273 1.83569336 C19.77753295 5.36171562 19.45615316 8.8612394 19.4375 13.1328125 C19.43427734 14.43154297 19.43105469 15.73027344 19.42773438 17.06835938 C19.41937906 18.44010483 19.41091412 19.81184962 19.40234375 21.18359375 C19.3973271 22.5670557 19.39276448 23.95051938 19.38867188 25.33398438 C19.37686904 28.7213977 19.36040394 32.10872408 19.33984375 35.49609375 C16.36984375 35.49609375 13.39984375 35.49609375 10.33984375 35.49609375 C10.33984375 26.91609375 10.33984375 18.33609375 10.33984375 9.49609375 C7.03984375 9.82609375 3.73984375 10.15609375 0.33984375 10.49609375 C0.00984375 18.74609375 -0.32015625 26.99609375 -0.66015625 35.49609375 C-3.30015625 35.49609375 -5.94015625 35.49609375 -8.66015625 35.49609375 C-8.75920928 31.15452323 -8.83170926 26.81355521 -8.87988281 22.47119141 C-8.89996926 20.99483785 -8.92724426 19.51856356 -8.96191406 18.04248047 C-9.01056809 15.91744413 -9.03315298 13.79346141 -9.05078125 11.66796875 C-9.07172852 10.39018555 -9.09267578 9.11240234 -9.11425781 7.79589844 C-8.66015625 4.49609375 -8.66015625 4.49609375 -6.92700195 2.07885742 C-4.35212194 0.28101713 -3.10733018 -0.00721686 0 0 Z " fill="#003278" transform="translate(98.66015625,-0.49609375)"/>
<path d="M0 0 C0.89589844 0.00322266 1.79179687 0.00644531 2.71484375 0.00976562 C4.12056641 0.02233398 4.12056641 0.02233398 5.5546875 0.03515625 C6.49957031 0.03966797 7.44445312 0.04417969 8.41796875 0.04882812 C10.75527137 0.06063268 13.09244811 0.07709866 15.4296875 0.09765625 C15.4296875 2.73765625 15.4296875 5.37765625 15.4296875 8.09765625 C10.1496875 8.09765625 4.8696875 8.09765625 -0.5703125 8.09765625 C-0.5703125 8.75765625 -0.5703125 9.41765625 -0.5703125 10.09765625 C4.7096875 10.42765625 9.9896875 10.75765625 15.4296875 11.09765625 C15.4296875 13.73765625 15.4296875 16.37765625 15.4296875 19.09765625 C9.8196875 19.09765625 4.2096875 19.09765625 -1.5703125 19.09765625 C-0.9103125 20.08765625 -0.2503125 21.07765625 0.4296875 22.09765625 C3.0393085 22.481769 5.4354949 22.70058822 8.0546875 22.78515625 C8.76109375 22.81931641 9.4675 22.85347656 10.1953125 22.88867188 C11.93954438 22.97116933 13.68459145 23.0360896 15.4296875 23.09765625 C15.4296875 25.40765625 15.4296875 27.71765625 15.4296875 30.09765625 C11.9924709 30.21370304 8.55575664 30.28485133 5.1171875 30.34765625 C4.14072266 30.38117187 3.16425781 30.4146875 2.15820312 30.44921875 C1.22041016 30.46210937 0.28261719 30.475 -0.68359375 30.48828125 C-1.97970581 30.51970215 -1.97970581 30.51970215 -3.30200195 30.55175781 C-5.5703125 30.09765625 -5.5703125 30.09765625 -7.35302734 28.37597656 C-8.74421324 25.77217656 -8.94409929 24.19091535 -8.93359375 21.25390625 C-8.93294922 20.33738281 -8.93230469 19.42085937 -8.93164062 18.4765625 C-8.91552734 17.52652344 -8.89941406 16.57648437 -8.8828125 15.59765625 C-8.88603516 14.64761719 -8.88925781 13.69757812 -8.89257812 12.71875 C-8.8304958 4.69319834 -8.8304958 4.69319834 -6.5703125 1.09765625 C-4.16971433 -0.10264283 -2.67670601 -0.01694118 0 0 Z " fill="#00337A" transform="translate(184.5703125,4.90234375)"/>
<path d="M0 0 C0.78052734 0.00322266 1.56105469 0.00644531 2.36523438 0.00976562 C3.53022461 -0.0144043 3.53022461 -0.0144043 4.71875 -0.0390625 C10.44315998 -0.04399309 10.44315998 -0.04399309 12.61157227 1.5949707 C15.22526918 5.02511459 15.04864798 8.55781703 15.02539062 12.74414062 C15.02216797 13.76894531 15.01894531 14.79375 15.015625 15.84960938 C15.00724609 16.91308594 14.99886719 17.9765625 14.99023438 19.07226562 C14.98572266 20.15121094 14.98121094 21.23015625 14.9765625 22.34179688 C14.96479165 25.00200946 14.94834837 27.66210927 14.92773438 30.32226562 C12.28773438 30.32226562 9.64773437 30.32226562 6.92773438 30.32226562 C6.92773438 23.06226562 6.92773438 15.80226562 6.92773438 8.32226562 C3.95773438 8.32226562 0.98773438 8.32226562 -2.07226562 8.32226562 C-2.07226562 15.58226563 -2.07226562 22.84226563 -2.07226562 30.32226562 C-4.71226562 30.32226562 -7.35226563 30.32226562 -10.07226562 30.32226562 C-10.13051182 26.59316496 -10.16594479 22.86418199 -10.19726562 19.13476562 C-10.21402344 18.07966797 -10.23078125 17.02457031 -10.24804688 15.9375 C-10.25449219 14.91591797 -10.2609375 13.89433594 -10.26757812 12.84179688 C-10.27805176 11.90440674 -10.28852539 10.9670166 -10.29931641 10.0012207 C-9.68407454 2.74202819 -7.26433403 0.06894536 0 0 Z " fill="#00357E" transform="translate(160.072265625,4.677734375)"/>
<path d="M0 0 C9.24 0 18.48 0 28 0 C28 2.97 28 5.94 28 9 C24.7 9 21.4 9 18 9 C18 17.58 18 26.16 18 35 C15.03 35 12.06 35 9 35 C9 26.42 9 17.84 9 9 C6.03 9 3.06 9 0 9 C0 6.03 0 3.06 0 0 Z " fill="#003680" transform="translate(0,0)"/>
<path d="M0 0 C7.92 0 15.84 0 24 0 C24 2.64 24 5.28 24 8 C21.36 8 18.72 8 16 8 C16 15.26 16 22.52 16 30 C13.69 30 11.38 30 9 30 C9 22.74 9 15.48 9 8 C6.03 8 3.06 8 0 8 C0 5.36 0 2.72 0 0 Z " fill="#003073" transform="translate(201,5)"/>
<path d="M0 0 C0.78052734 0.00322266 1.56105469 0.00644531 2.36523438 0.00976562 C3.53022461 -0.0144043 3.53022461 -0.0144043 4.71875 -0.0390625 C10.50762123 -0.04404861 10.50762123 -0.04404861 12.67407227 1.8449707 C13.08778076 2.33247803 13.50148926 2.81998535 13.92773438 3.32226562 C13.59773438 3.98226563 13.26773438 4.64226563 12.92773438 5.32226562 C11.93773437 4.66226562 10.94773438 4.00226562 9.92773438 3.32226562 C6.59936966 2.96558761 6.59936966 2.96558761 2.92773438 3.00976562 C1.69023437 2.99300781 0.45273438 2.97625 -0.82226562 2.95898438 C-3.96808128 3.04410699 -3.96808128 3.04410699 -5.7434082 4.51220703 C-7.53374411 6.95085308 -7.50087224 8.6378251 -7.58398438 11.64648438 C-7.61943359 12.67451172 -7.65488281 13.70253906 -7.69140625 14.76171875 C-7.71396484 15.83357422 -7.73652344 16.90542969 -7.75976562 18.00976562 C-7.79392578 19.09322266 -7.82808594 20.17667969 -7.86328125 21.29296875 C-7.94581122 23.96929783 -8.014945 26.64529721 -8.07226562 29.32226562 C-8.73226562 29.32226562 -9.39226562 29.32226562 -10.07226562 29.32226562 C-10.1305412 25.75983482 -10.16595447 22.19752744 -10.19726562 18.63476562 C-10.21402344 17.62736328 -10.23078125 16.61996094 -10.24804688 15.58203125 C-10.25771484 14.11733398 -10.25771484 14.11733398 -10.26757812 12.62304688 C-10.27805176 11.72755127 -10.28852539 10.83205566 -10.29931641 9.90942383 C-9.665573 2.68815618 -7.20747698 0.06840573 0 0 Z " fill="#002E6F" transform="translate(160.072265625,4.677734375)"/>
<path d="M0 0 C9.24 0 18.48 0 28 0 C28 2.31 28 4.62 28 7 C27.34 6.67 26.68 6.34 26 6 C26 4.68 26 3.36 26 2 C17.75 2 9.5 2 1 2 C1 3.65 1 5.3 1 7 C0.67 7 0.34 7 0 7 C0 4.69 0 2.38 0 0 Z " fill="#001B49" transform="translate(0,0)"/>
<path d="M0 0 C0.33 0 0.66 0 1 0 C1 5.61 1 11.22 1 17 C4.63 17 8.26 17 12 17 C11.67 17.66 11.34 18.32 11 19 C7.04 19 3.08 19 -1 19 C-1.02683987 16.02077407 -1.04676037 13.04178705 -1.0625 10.0625 C-1.07087891 9.21236328 -1.07925781 8.36222656 -1.08789062 7.48632812 C-1.09111328 6.67744141 -1.09433594 5.86855469 -1.09765625 5.03515625 C-1.10289307 4.2862915 -1.10812988 3.53742676 -1.11352539 2.76586914 C-1 1 -1 1 0 0 Z " fill="#001F50" transform="translate(127,9)"/>
<path d="M0 0 C0.89589844 0.00322266 1.79179687 0.00644531 2.71484375 0.00976562 C4.12056641 0.02233398 4.12056641 0.02233398 5.5546875 0.03515625 C6.49957031 0.03966797 7.44445312 0.04417969 8.41796875 0.04882812 C10.75527137 0.06063268 13.09244811 0.07709866 15.4296875 0.09765625 C15.4296875 0.75765625 15.4296875 1.41765625 15.4296875 2.09765625 C14.83953857 2.11747559 14.24938965 2.13729492 13.64135742 2.15771484 C10.96618654 2.25300284 8.29179252 2.36266564 5.6171875 2.47265625 C4.68841797 2.50359375 3.75964844 2.53453125 2.80273438 2.56640625 C1.91005859 2.60507813 1.01738281 2.64375 0.09765625 2.68359375 C-0.72452393 2.71501465 -1.5467041 2.74643555 -2.39379883 2.77880859 C-4.85984187 2.98139247 -4.85984187 2.98139247 -7.5703125 5.09765625 C-7.1953125 3.16015625 -7.1953125 3.16015625 -6.5703125 1.09765625 C-4.16971433 -0.10264283 -2.67670601 -0.01694118 0 0 Z " fill="#000C28" transform="translate(184.5703125,4.90234375)"/>
<path d="M0 0 C0.78117188 -0.020625 1.56234375 -0.04125 2.3671875 -0.0625 C8.21953903 -0.1025846 8.21953903 -0.1025846 10.37353516 1.77050781 C10.78651855 2.25874023 11.19950195 2.74697266 11.625 3.25 C11.295 3.91 10.965 4.57 10.625 5.25 C9.635 4.59 8.645 3.93 7.625 3.25 C4.91498852 3.05478731 2.33173209 2.9711025 -0.375 3 C-1.09945312 2.99226562 -1.82390625 2.98453125 -2.5703125 2.9765625 C-6.36888493 2.99057937 -8.14337084 3.09558056 -11.375 5.25 C-8.55416933 -0.57971672 -6.24348024 0.04080706 0 0 Z " fill="#000B27" transform="translate(162.375,4.75)"/>
<path d="M0 0 C1.03165283 0.02094727 2.06330566 0.04189453 3.1262207 0.06347656 C4.80361328 0.0828125 4.80361328 0.0828125 6.51489258 0.10253906 C7.68213867 0.13605469 8.84938477 0.16957031 10.05200195 0.20410156 C11.23084961 0.22214844 12.40969727 0.24019531 13.62426758 0.25878906 C16.53849121 0.30598297 19.45109226 0.37181079 22.36450195 0.45410156 C22.36450195 0.78410156 22.36450195 1.11410156 22.36450195 1.45410156 C21.68347412 1.46868408 21.00244629 1.4832666 20.30078125 1.49829102 C17.2172798 1.57272852 14.13486629 1.66940239 11.05200195 1.76660156 C9.98014648 1.78916016 8.90829102 1.81171875 7.80395508 1.83496094 C6.77592773 1.87041016 5.74790039 1.90585937 4.6887207 1.94238281 C3.74085693 1.96856689 2.79299316 1.99475098 1.81640625 2.02172852 C-0.98710199 2.51610401 -1.89146769 3.26065782 -3.63549805 5.45410156 C-4.29549805 5.12410156 -4.95549805 4.79410156 -5.63549805 4.45410156 C-3.99768956 1.61556091 -3.30516986 0.56948735 0 0 Z " fill="#000720" transform="translate(65.635498046875,-0.4541015625)"/>
<path d="M0 0 C1.485 0.99 1.485 0.99 3 2 C5.58885171 2.29991069 8.09149082 2.50865225 10.6875 2.625 C11.7403418 2.68300781 11.7403418 2.68300781 12.81445312 2.7421875 C14.54254655 2.8362334 16.27123675 2.9191968 18 3 C18 3.33 18 3.66 18 4 C12.39 4 6.78 4 1 4 C0.67 2.68 0.34 1.36 0 0 Z " fill="#000820" transform="translate(182,25)"/>
</svg>
